<?xml version="1.0" encoding="utf-8"?>
<!-- Generator: Adobe Illustrator 19.2.1, SVG Export Plug-In . SVG Version: 6.00 Build 0)  -->
<svg version="1.1" id="layer" xmlns="http://www.w3.org/2000/svg" xmlns:xlink="http://www.w3.org/1999/xlink" x="0px" y="0px"
	 viewBox="0 0 652 652" style="enable-background:new 0 0 652 652;" xml:space="preserve">
<style type="text/css">
	.st0{fill:#034694;}
	.st1{fill:#0098D7;}
	.st2{fill:#FFFFFF;}
</style>
<path class="st0" d="M114.1,182.3c2-2.9,4.1-5.9,6.2-8.7C165.8,112,239.1,72,321.7,72c77.3,0,146.4,35,192.3,90
	c1.4,1.8,2.9,3.6,4.3,5.3c1.1,0-5.2,1.5-10.6,4.2c-5.5,2.7-12.8,4.3-21.6,12c-8.7,7.7-16.9,18.5-26.1,33.4
	c-9.2,15-19.4,37.9-28.6,55.4c-9.2,17.5-15.3,34.3-26,48.9c-10.7,14.5-24.6,29.6-37.7,37.7c-13.1,8-25.4,11.8-40.2,10.2
	c-14.9-1.6-33.4-10.6-48.2-19.6c-14.7-9-29.4-24-39.6-34c-10.2-10-11.8-13.4-21.2-25.3c-9.4-12-22.8-31.8-34.4-45.7
	c-11.7-13.9-23.4-26.4-35.1-36.8c-11.7-10.4-23.1-18.5-34.7-24.9L114.1,182.3z"/>
<path class="st1" d="M543.5,210.9c17,33.6,26.5,71.6,26.5,111.8c0,137.7-111.9,249.3-250,249.3S70,460.4,70,322.7
	c0-22.1,2.9-43.4,8.3-63.8c0,0,11.3,4.3,22.8,13.2c11.5,8.8,10.8,10.4,21.9,22.3c11.1,11.9,7.2,10.8,22.3,25.3
	c15.2,14.5,16.8,18.3,38.3,32.7c21.5,14.3,24.1,15.6,47.7,24.8c23.6,9.1,24.3,8.5,46.7,11.9c14,0.8,28.1,1.6,42.2,2.5
	c-8.4,6-13.8,8.3-27.3,14.4c-13.6,6.1-13.2,5.3-26.8,9.9c-13.7,4.6-18.9,5.9-27.8,8.5h1c0.5,2.5,1,3.7,8.9,6.4
	c8,2.7,8.8,4.8,22.9,4.5c14.1-0.4,11.8,2.5,33.3-5.9c21.5-8.5,29.8-17.1,52.7-27.8c22.9-10.6,19-9.9,38.7-14.9c19.8-5,26.8-5,40.2-5
	v-0.5c1-3,0.6-5-3.5-7.9c-4.1-3-3.1-3.4-12.9-4c-9.8-0.6-16.5,0.9-26.3,1.5c-9.8,0.6-8.2,1.1-12.9,1c-2.2-0.5-4.3-1-6.5-1.5
	c5-0.5,8.3-1.8,20.3-7.9c12.1-6.1,12.2-5.6,27.8-16.4c15.7-10.8,16.4-8.8,34.8-26.8c18.4-18,22.9-25.5,38.7-45.1
	c15.9-19.6,12.7-17.1,24.8-33.2C532.6,224.7,535.6,221.3,543.5,210.9"/>
<path class="st2" d="M518.3,167.3c-2,0.7-7.2,2.4-10.6,4c-5.5,2.7-12.8,4.3-21.6,12c-8.7,7.7-16.9,18.5-26.1,33.4
	c-9.2,15-19.4,37.9-28.6,55.4c-9.2,17.5-15.3,34.3-26,48.9c-10.7,14.5-24.6,29.6-37.7,37.7c-13.1,8-25.4,11.8-40.2,10.2
	c-14.9-1.6-33.4-10.6-48.2-19.6c-14.7-9-29.4-24-39.6-34c-10.2-10-11.8-13.4-21.2-25.3c-9.4-12-22.8-31.8-34.4-45.7
	c-11.7-13.9-23.4-26.4-35.1-36.8c-11.7-10.4-23.1-18.5-34.7-24.9l-0.3-0.3c-15.7,23.2-27.5,49.2-34.7,77c3.1,1.3,12.2,5.5,21.6,12.6
	c11.5,8.8,10.8,10.4,21.9,22.3c11.1,11.9,7.2,10.8,22.3,25.3c15.2,14.5,16.8,18.3,38.3,32.7c21.5,14.3,24.1,15.6,47.7,24.8
	c23.6,9.1,24.3,8.5,46.7,11.9c14,0.8,28.1,1.6,42.2,2.5c-8.4,6-13.8,8.3-27.3,14.4c-13.6,6.1-13.2,5.3-26.8,9.9
	c-13.7,4.6-18.9,5.9-27.8,8.5h1c0.5,2.5,1,3.7,8.9,6.4c8,2.7,8.8,4.8,22.9,4.5c14.1-0.4,11.8,2.5,33.3-5.9
	c21.5-8.5,29.8-17.1,52.7-27.8c22.9-10.6,19-9.9,38.7-14.9s26.8-5,40.2-5v-0.5c1-3,0.6-5-3.5-7.9c-4.1-3-3.1-3.4-12.9-4
	c-9.8-0.6-16.5,0.9-26.3,1.5c-9.8,0.6-8.2,1.1-12.9,1c-2.2-0.5-4.3-1-6.5-1.5c5-0.5,8.3-1.8,20.3-7.9c12.1-6.1,12.2-5.6,27.8-16.4
	c15.7-10.8,16.4-8.8,34.8-26.8c18.4-18,22.9-25.5,38.7-45.1c15.9-19.6,12.7-17.1,24.8-33.2c12.2-16.1,15.2-19.6,23.1-30
	C539,199.7,526.7,178.5,518.3,167.3z"/>
<path class="st2" d="M211.6,239.6v-63h32.8c4.7,0,8.4,3.8,8.4,8.4v54.6h-13.8v-48.3c0-1.2-0.9-2.1-2.1-2.1h-9.5h-0.1
	c-1.1,0-2.1,0.9-2.1,2.1v48.3C225.4,239.6,211.6,239.6,211.6,239.6z"/>
<path class="st2" d="M349.2,199.7v-8.4c0-1.2-0.9-2.1-2.1-2.1h-9.7c-1.2,0-2.2,0.9-2.2,2.1v8.4c0,1.2,1,2.1,2.2,2.1h9.7
	C348.2,201.8,349.2,200.9,349.2,199.7 M321.1,239.6V185c0-4.6,3.9-8.4,8.6-8.4h25c4.8,0,8.6,3.8,8.6,8.4v54.6h-14.2v-23.1
	c0-1.2-0.9-2.1-2.1-2.1h-9.7c-1.2,0-2.2,0.9-2.2,2.1v23.1C335.1,239.6,321.1,239.6,321.1,239.6z"/>
<path class="st2" d="M404.7,199.7v-8.4c0-1.2-1-2.1-2.2-2.1h-9.6c-1.2,0-2.1,0.9-2.1,2.1v8.4c0,1.2,0.9,2.1,2.1,2.1h9.6
	C403.7,201.8,404.7,200.9,404.7,199.7 M376.8,239.6V185c0-4.6,3.8-8.4,8.5-8.4H410c4.8,0,8.6,3.8,8.6,8.4v54.6h-13.9v-23.1
	c0-1.2-1-2.1-2.2-2.1h-9.6c-1.2,0-2.1,0.9-2.1,2.1v23.1C390.8,239.6,376.8,239.6,376.8,239.6z"/>
<path class="st2" d="M300.2,176.6h-24c-4.6,0-8.3,3.8-8.3,8.4v0.1v46.1c0,4.6,3.7,8.4,8.3,8.4l0,0h24c4.6,0,8.3-3.8,8.3-8.4V231V185
	C308.5,180.4,304.8,176.6,300.2,176.6z M294.9,224.8c0,1.1-0.9,2.1-2.1,2.1h-9.4c-1.1,0-2.1-0.9-2.1-2.1v-33.5
	c0-1.1,0.9-2.1,2.1-2.1h9.4c1.1,0,2.1,1,2.1,2.1V224.8z"/>
</svg>
